<?xml version="1.0" encoding="utf-8"?>
<!-- Svg Vector Icons : http://www.onlinewebfonts.com/icon -->
<!DOCTYPE svg PUBLIC "-//W3C//DTD SVG 1.1//EN" "http://www.w3.org/Graphics/SVG/1.1/DTD/svg11.dtd">
<svg version="1.1" xmlns="http://www.w3.org/2000/svg" xmlns:xlink="http://www.w3.org/1999/xlink" x="0px" y="0px" viewBox="0 0 256 256" enable-background="new 0 0 256 256" xml:space="preserve">
<metadata> Svg Vector Icons : http://www.onlinewebfonts.com/icon </metadata>
<g><g><path fill="#000000" d="M60.3,97.5v-1.4c0-5.5,4.4-10,9.8-10h7.8c5.4,0,9.8,4.5,9.8,10v1.5c0,5.5,1.4,6,6.7,6h68.2c5,0,5.5-0.7,5.5-5.3v-2.2c0-5.5,4.4-10,9.8-10h7.6c5.4,0,9.8,4.5,9.8,10v1.7c0,5,1.6,5.8,6.4,5.8h37.6c5.1,0,6.6-1.4,6.6-6.4V86c0-11-8.8-20-19.6-20H29.6C18.8,66,10,75,10,86v10.5c0,5.7,1.6,7.1,7.7,7.1h35.6C59,103.6,60.3,103,60.3,97.5L60.3,97.5z M195.4,123.9v2.1c0,5.5-4.4,10-9.8,10h-7.6c-5.4,0-9.8-4.5-9.8-10v-2c0-4.3-1.2-5.5-5.6-5.5H94.7c-5.6,0-7,1.2-7,6.2v1.3c0,5.5-4.4,10-9.8,10h-7.8c-5.4,0-9.8-4.5-9.8-10v-0.8c0-5.9-1.4-6.7-6.7-6.7h-36c-5.9,0-7.5,1.5-7.5,7.5V226c0,11,8.8,20,19.6,20h196.8c10.8,0,19.6-9,19.6-20V124.6c0-4.5-1.9-6-6-6h-37.9C196.8,118.6,195.4,119.5,195.4,123.9L195.4,123.9z M81.4,117.6c0,5.4-3.3,9.8-7.3,9.8c-4,0-7.3-4.4-7.3-9.8v-12c0-5.4,3.3-9.8,7.3-9.8c4,0,7.3,4.4,7.3,9.8V117.6L81.4,117.6z M189.2,117.6c0,5.4-3.3,9.8-7.3,9.8s-7.3-4.4-7.3-9.8v-12c0-5.4,3.3-9.8,7.3-9.8s7.3,4.4,7.3,9.8V117.6L189.2,117.6z M74.2,69.6c8.2-22.2,29.2-38,53.9-38c24.7,0,45.7,15.8,53.9,38c0,0,1.7,7.3,11.9,7.3c10.2,0,10.1-7.3,10.1-7.3C195.1,35.3,164.5,10,128.1,10s-67,25.3-75.9,59.5c0,0-0.6,6.4,9.9,6.4C72.6,76,74.2,69.6,74.2,69.6L74.2,69.6z"/></g></g>
</svg>