<?xml version="1.0" encoding="utf-8"?>
<!-- Svg Vector Icons : http://www.onlinewebfonts.com/icon -->
<!DOCTYPE svg PUBLIC "-//W3C//DTD SVG 1.1//EN" "http://www.w3.org/Graphics/SVG/1.1/DTD/svg11.dtd">
<svg version="1.1" xmlns="http://www.w3.org/2000/svg" xmlns:xlink="http://www.w3.org/1999/xlink" x="0px" y="0px" viewBox="0 0 256 256" enable-background="new 0 0 256 256" xml:space="preserve">
<metadata> Svg Vector Icons : http://www.onlinewebfonts.com/icon </metadata>
<g><g><g><path fill="#000000" d="M113.8,10.1c-23.1,1.5-34.7,3.1-50.1,6.9c-15.8,3.9-28.6,9.3-34.2,14.3c-3.4,3.1-4.2,4.6-4.2,7.1s0.9,4.1,4.1,7c7.7,7,27.1,13.9,49.2,17.6c40.4,6.8,89.1,4.7,122.7-5.4c13.8-4.1,26.5-11.2,29.1-16.1c0.9-1.7,0.9-4.7,0-6.4c-1.4-2.8-6.2-6.5-12.5-9.5c-15-7.4-36.1-12.4-62.5-14.8C147.8,10.3,119.9,9.7,113.8,10.1z"/><path fill="#000000" d="M25.2,57.2c0,0.7,0,10.6,0,21.9c0,20.3,0,20.6,1,22.2c5.3,8.6,28.1,17.4,56.3,21.7c48.5,7.5,104.8,2.3,134.9-12.4c6.5-3.2,10.1-5.7,12.2-8.7l1.4-1.9V78c0-12.1,0-22-0.1-22c-0.1,0-2.3,1.1-5,2.5c-35.1,18.4-105.8,23.6-160,12C52,67.5,38.7,63,29.4,58c-2.1-1.1-3.9-2-4-2C25.3,56,25.2,56.5,25.2,57.2z"/><path fill="#000000" d="M25,137.3c0.1,24.2,0,23,3.3,26.3c2.4,2.4,4.7,3.9,9.6,6.4c15.5,7.8,37,12.7,66.2,15.2c8.9,0.7,39.3,0.7,48,0c30.5-2.7,51.3-7.6,67.1-15.7c5.2-2.6,9.8-6.4,11.1-8.9c0.6-1.1,0.6-5,0.6-23.2v-21.9l-6.6,3.3c-15.9,7.9-38.8,13.5-67.3,16.2c-10.2,1-37,1.4-48,0.7c-33.1-2.1-61.3-8.4-79.2-17.8c-2.6-1.4-4.8-2.5-4.8-2.5C25,115.5,25,125.3,25,137.3z"/><path fill="#000000" d="M25.2,176.8c0,0.8,0,10.2,0,21s0,20.1,0,20.7c0,1.8,2.6,5.1,5.4,7.2c3.6,2.7,13.4,7.3,20.4,9.7c28.1,9.4,71.2,13,109.8,8.9c30.4-3.1,57.6-11.5,66.8-20.6c3.5-3.4,3.3-1.8,3.3-26.2v-22l-6.5,3.3c-15.8,7.9-38.2,13.3-66.8,16.2c-9.8,1-37.5,1.4-48.4,0.7c-33.4-2.1-61.3-8.3-79.2-17.8l-4.8-2.5L25.2,176.8z"/></g></g></g>
</svg>