<?xml version="1.0" encoding="utf-8"?>
<!-- Svg Vector Icons : http://www.onlinewebfonts.com/icon -->
<!DOCTYPE svg PUBLIC "-//W3C//DTD SVG 1.1//EN" "http://www.w3.org/Graphics/SVG/1.1/DTD/svg11.dtd">
<svg version="1.1" xmlns="http://www.w3.org/2000/svg" xmlns:xlink="http://www.w3.org/1999/xlink" x="0px" y="0px" viewBox="0 0 256 256" enable-background="new 0 0 256 256" xml:space="preserve">
<metadata> Svg Vector Icons : http://www.onlinewebfonts.com/icon </metadata>
<g><g><g><path fill="#000000" d="M73,11.2c-4.2,1.6-7.1,4.4-9.1,8.6l-1.6,3.6v105.5c0,101.5,0.1,105.6,1.1,108.5c1.4,3.9,4.4,7,7.8,7.9c1.8,0.5,18.5,0.7,57.5,0.8c52,0.2,55.1,0.1,57.3-0.8c3.1-1.4,5-3.4,6.6-6.9l1.3-2.9V127.9c0-102.4-0.1-107.6-1-110.1c-0.6-1.5-1.9-3.5-3-4.4c-4-3.6-2.4-3.5-60.8-3.4C77.7,10,75.7,10.1,73,11.2z M183.8,127.3V209H128H72.2v-81.6V45.7H128h55.8V127.3z M132.5,214c4.4,2,6.5,5.4,6.5,10.3c0,6.4-4.7,10.9-11.1,10.8c-4.6-0.1-8.3-2.6-10.1-7C114.1,219.1,123.6,209.9,132.5,214z"/><path fill="#000000" d="M122.9,80.3c-16.7,1.2-32.7,12.1-40.2,27.1c-7.8,15.6-7.3,33.2,1.4,48.6c2.9,5.3,11.6,14.2,16.5,17.1c8.9,5.3,17,7.5,27.2,7.5c14.3,0,26.2-5.2,36.3-15.8c5.4-5.7,8.7-11.2,11.2-18.5c8.8-26.3-5.6-54.9-32-63.7C137.2,80.5,130,79.8,122.9,80.3z M130.5,126.9c-4.3,12-8.3,22.8-8.8,24.1c-0.9,2.4-0.9,2.4-3.7,2.4c-2,0-2.8-0.2-2.6-0.7c0.2-0.3,4.1-11.2,8.7-24.1l8.4-23.4h2.9h2.9L130.5,126.9z M110.3,123.3c-0.2,0.2-4,1.8-8.4,3.4c-4.4,1.6-8.1,3.2-8.3,3.3c-0.2,0.2,3.5,1.9,8.3,3.7l8.8,3.3v3.6c0,2-0.2,3.6-0.5,3.5c-0.3-0.1-6.1-2.6-12.8-5.6l-12.2-5.4l0.1-3.1l0.2-3.1l12.5-5.5l12.5-5.5l0.2,3.4C110.7,121.4,110.5,123.1,110.3,123.3z M157.8,122l12.2,5.3v2.9v3l-12.8,5.5c-7,3.1-12.9,5.6-13.2,5.6c-0.3,0.1-0.5-1.5-0.5-3.5v-3.5l9.1-3.4c5-1.9,9.1-3.5,9.1-3.7c0-0.2-4.1-1.8-9.1-3.6l-9.1-3.3v-3.6c0-3.2,0.1-3.6,1-3.2C145.1,116.6,151.1,119.2,157.8,122z"/><path fill="#000000" d="M122.6,224.3v5.1h5.4h5.4v-5.1v-5.1H128h-5.4V224.3z"/></g></g></g>
</svg>