<?xml version="1.0" encoding="utf-8"?>
<!-- Svg Vector Icons : http://www.onlinewebfonts.com/icon -->
<!DOCTYPE svg PUBLIC "-//W3C//DTD SVG 1.1//EN" "http://www.w3.org/Graphics/SVG/1.1/DTD/svg11.dtd">
<svg version="1.1" xmlns="http://www.w3.org/2000/svg" xmlns:xlink="http://www.w3.org/1999/xlink" x="0px" y="0px" viewBox="0 0 256 256" enable-background="new 0 0 256 256" xml:space="preserve">
<metadata> Svg Vector Icons : http://www.onlinewebfonts.com/icon </metadata>
<g><g><g><path fill="#000000" d="M121.4,22.5C104.7,26.1,90.5,37,83,52c-6.1,12.1-7.6,24.8-4.3,37.6c6,23.8,24.7,39.9,49.4,42.5c15.2,1.6,35.1-6.9,45.5-19.3c29.5-35.3,6.2-89.1-39.4-90.8C129.2,21.8,123.5,22,121.4,22.5z"/><path fill="#000000" d="M98.9,160.2c-17.5,1.6-25.1,2.6-38.3,5.6c-20.9,4.7-36,11.2-43.9,18.6c-6.4,6.2-6.7,7.3-6.7,29.8V234h118h118v-19.7c0-10.8-0.4-20.8-0.9-22.1c-1.3-3.5-7-9.4-12.1-12.8C209,164.2,150.5,155.8,98.9,160.2z"/></g></g></g>
</svg>